<svg data-name="Layer 1" xmlns="http://www.w3.org/2000/svg" xmlns:xlink="http://www.w3.org/1999/xlink" viewBox="0 0 297.36 51.35">
<defs>
    <clipPath id="clip-path" transform="translate(0 0)">
    <rect width="297.36" height="51.35" fill="none"></rect>
    </clipPath>
</defs>
<title>logo-grand-circus</title>
<g clip-path="url(#clip-path)">
    <path d="M97,28.57c-.85-2.76-11.71-9.38-18.12-13.08l-.13-.06V6.85S90.44,4.77,90.44,4,78.79,1,78.79,1a1,1,0,0,0-2,0V15.67c-6.44,3.73-17,10.19-17.8,12.9-.77,2.52-7.9,20.54-8,20.72a1.5,1.5,0,0,0,.84,2,1.54,1.54,0,0,0,.55.11,1.51,1.51,0,0,0,1.4-1c.29-.75,7.24-18.32,8-20.89.74-1.46,8.85-6.81,16.18-11.08,7.32,4.27,15.43,9.62,16.17,11.08.79,2.57,7.74,20.14,8,20.89a1.51,1.51,0,0,0,1.4,1,1.54,1.54,0,0,0,.55-.11,1.5,1.5,0,0,0,.84-2c-.07-.18-7.2-18.2-8-20.72" transform="translate(0 0)" fill="#ef6839"></path>
    <path d="M77.83,38.39c-.8,0-3,11.65-3,11.65h5.85s-2.07-11.65-2.88-11.65" transform="translate(0 0)" fill="#231f20"></path>
    <path d="M4.26,17.39A5.57,5.57,0,0,1,5.4,15.73a5.47,5.47,0,0,1,1.69-1.14,5,5,0,0,1,2-.42,4.75,4.75,0,0,1,2,.42,5.54,5.54,0,0,1,1.66,1.13,5.75,5.75,0,0,1,1.14,1.67,4.71,4.71,0,0,1,.42,2,1,1,0,0,0,.29.7,1,1,0,0,0,.71.3h1.84a1,1,0,0,0,.71-.3,1,1,0,0,0,.29-.7,9,9,0,0,0-.72-3.57,9.23,9.23,0,0,0-2-2.87,9,9,0,0,0-6.39-2.63,8.76,8.76,0,0,0-3.56.73A9.29,9.29,0,0,0,2.67,13,9.12,9.12,0,0,0,.73,15.88,8.79,8.79,0,0,0,0,19.44V41.56a8.76,8.76,0,0,0,.73,3.56A9.12,9.12,0,0,0,2.67,48a9.32,9.32,0,0,0,2.89,2A9.07,9.07,0,0,0,12.5,50h0a9.53,9.53,0,0,0,2.82-1.79,9,9,0,0,0,2.86-6V28.07a1,1,0,0,0-1-1H7.72a1,1,0,0,0-1,1v1.84a1,1,0,0,0,.29.71,1,1,0,0,0,.71.29h6.62V41.56a5,5,0,0,1-.42,2,5.42,5.42,0,0,1-1.14,1.68h0a5.57,5.57,0,0,1-1.66,1.14,4.9,4.9,0,0,1-2,.41,5,5,0,0,1-2-.42h0a5.22,5.22,0,0,1-2.82-2.82,5,5,0,0,1-.42-2V19.4a5,5,0,0,1,.41-2" transform="translate(0 0)" fill="#231f20"></path>
    <path d="M37.61,33.93a8.41,8.41,0,0,0,1.73-.78,9.11,9.11,0,0,0,2.32-2,9.37,9.37,0,0,0,1.57-2.63,8.54,8.54,0,0,0,.57-3.11V19.55A8.7,8.7,0,0,0,43.07,16a9.44,9.44,0,0,0-1.93-2.85,8.91,8.91,0,0,0-2.89-1.92,9,9,0,0,0-3.54-.69H27.9a1,1,0,0,0-.7.29,1,1,0,0,0-.3.71V49.4a1,1,0,0,0,.3.71,1,1,0,0,0,.7.29h1.85a1,1,0,0,0,.71-.29,1.05,1.05,0,0,0,.29-.71v-15h2.93L40.2,49.79a1,1,0,0,0,.92.61h2a1,1,0,0,0,.83-.45A1,1,0,0,0,44,49Zm-.88-19.12a5.48,5.48,0,0,1,2.81,2.8A4.79,4.79,0,0,1,40,19.55v5.88a4.87,4.87,0,0,1-.41,2,5.57,5.57,0,0,1-1.14,1.66,5.07,5.07,0,0,1-3.66,1.5h-4V14.39h4a4.7,4.7,0,0,1,2,.42" transform="translate(0 0)" fill="#231f20"></path>
    <path d="M126.42,10.55h-1.84a1,1,0,0,0-.71.29,1,1,0,0,0-.29.71v27l-9.94-27.35a1,1,0,0,0-.94-.66h-1.84a1,1,0,0,0-.71.29,1,1,0,0,0-.29.71V49.4a1,1,0,0,0,.29.71,1,1,0,0,0,.71.29h1.84a1,1,0,0,0,1-1v-27l9.94,27.36a1,1,0,0,0,.94.66h1.84a1,1,0,0,0,1-1V11.55a1,1,0,0,0-1-1" transform="translate(0 0)" fill="#231f20"></path>
    <path d="M150.27,13.16a8.91,8.91,0,0,0-2.89-1.92,9.18,9.18,0,0,0-3.53-.69h-7.71a1,1,0,0,0-.7.29,1,1,0,0,0-.3.71V49.4a1,1,0,0,0,.3.71,1,1,0,0,0,.7.29h7.71a9.18,9.18,0,0,0,3.53-.69,8.78,8.78,0,0,0,2.89-1.93,9.23,9.23,0,0,0,1.94-2.85,8.62,8.62,0,0,0,.72-3.54V19.55a8.61,8.61,0,0,0-.72-3.53,9.4,9.4,0,0,0-1.94-2.86m-4.38,1.63a5.14,5.14,0,0,1,1.64,1.1,5.62,5.62,0,0,1,1.14,1.67,4.7,4.7,0,0,1,.42,2V41.39a4.71,4.71,0,0,1-.42,2,5.56,5.56,0,0,1-1.14,1.67,5.31,5.31,0,0,1-1.64,1.1h0a5.12,5.12,0,0,1-2,.39H139V14.39h4.88a5.13,5.13,0,0,1,2,.4" transform="translate(0 0)" fill="#231f20"></path>
    <path d="M175.21,17.39a5.57,5.57,0,0,1,1.14-1.66A5.47,5.47,0,0,1,178,14.59a5,5,0,0,1,2-.42,4.75,4.75,0,0,1,2,.42,5.37,5.37,0,0,1,1.66,1.13,5.75,5.75,0,0,1,1.14,1.67,4.87,4.87,0,0,1,.42,2,1,1,0,0,0,.29.7,1,1,0,0,0,.71.3h1.84a1,1,0,0,0,.71-.3,1,1,0,0,0,.29-.7,9,9,0,0,0-.72-3.57A9.23,9.23,0,0,0,186.46,13a9,9,0,0,0-6.39-2.63,8.76,8.76,0,0,0-3.56.73A9.29,9.29,0,0,0,173.62,13a9.12,9.12,0,0,0-1.94,2.89,8.79,8.79,0,0,0-.73,3.56V41.56a8.76,8.76,0,0,0,.73,3.56A9,9,0,0,0,176.51,50a8.76,8.76,0,0,0,3.56.73,8.63,8.63,0,0,0,3.54-.73,9.19,9.19,0,0,0,4.8-4.83,8.92,8.92,0,0,0,.72-3.56,1,1,0,0,0-1-1h-1.84a1,1,0,0,0-1,1,5.17,5.17,0,0,1-.42,2,5.42,5.42,0,0,1-1.14,1.68,5.57,5.57,0,0,1-1.66,1.14,4.9,4.9,0,0,1-2,.41,5,5,0,0,1-2-.42,5.22,5.22,0,0,1-2.82-2.82,5,5,0,0,1-.42-2V19.4a5,5,0,0,1,.41-2" transform="translate(0 0)" fill="#231f20"></path>
    <path d="M198.7,10.55h-1.85a1,1,0,0,0-.7.29,1,1,0,0,0-.3.71V49.4a1,1,0,0,0,.3.71,1,1,0,0,0,.7.29h1.85a1,1,0,0,0,1-1V11.55a1,1,0,0,0-1-1" transform="translate(0 0)" fill="#231f20"></path>
    <path d="M218.13,33.93a8.33,8.33,0,0,0,1.72-.78,9,9,0,0,0,2.33-2,9.34,9.34,0,0,0,1.56-2.63,8.34,8.34,0,0,0,.58-3.11V19.55a8.7,8.7,0,0,0-.73-3.54h0a9.44,9.44,0,0,0-1.93-2.85,8.91,8.91,0,0,0-2.89-1.92,9,9,0,0,0-3.54-.69h-6.81a1,1,0,0,0-1,1V49.4a1.05,1.05,0,0,0,.29.71,1,1,0,0,0,.71.29h1.85a1,1,0,0,0,.71-.29,1.05,1.05,0,0,0,.29-.71v-15h2.93l6.52,15.35a1,1,0,0,0,.92.61h2a1,1,0,0,0,.83-.45,1,1,0,0,0,.09-.94Zm.78-4.84a5,5,0,0,1-3.66,1.5h-4V14.39h4a4.71,4.71,0,0,1,2,.42A5.57,5.57,0,0,1,218.91,16a5.39,5.39,0,0,1,1.14,1.66,4.64,4.64,0,0,1,.42,1.94v5.88a4.71,4.71,0,0,1-.42,2,5.39,5.39,0,0,1-1.14,1.66" transform="translate(0 0)" fill="#231f20"></path>
    <path d="M234.64,17.39a5.46,5.46,0,0,1,2.82-2.8,5,5,0,0,1,2-.42,4.75,4.75,0,0,1,2,.42,5.42,5.42,0,0,1,2.8,2.8,4.71,4.71,0,0,1,.42,2,1,1,0,0,0,1,1h1.85a1,1,0,0,0,1-1,8.84,8.84,0,0,0-.73-3.57A9.09,9.09,0,0,0,243,11a9.09,9.09,0,0,0-7.09,0A9.37,9.37,0,0,0,233.05,13a9.15,9.15,0,0,0-2,2.89,9,9,0,0,0-.73,3.56V41.56a8.93,8.93,0,0,0,.73,3.56,9.15,9.15,0,0,0,2,2.89,9.4,9.4,0,0,0,2.88,2,9,9,0,0,0,3.56.72A8.63,8.63,0,0,0,243,50a9.19,9.19,0,0,0,4.8-4.83,8.76,8.76,0,0,0,.73-3.56,1,1,0,0,0-1-1h-1.85a1,1,0,0,0-1,1,5,5,0,0,1-.42,2,5.57,5.57,0,0,1-1.13,1.68,5.75,5.75,0,0,1-1.67,1.14,4.9,4.9,0,0,1-2,.41,5,5,0,0,1-2-.42,5.4,5.4,0,0,1-1.68-1.13h0a5.47,5.47,0,0,1-1.14-1.69,5,5,0,0,1-.42-2V19.4a4.79,4.79,0,0,1,.42-2" transform="translate(0 0)" fill="#231f20"></path>
    <path d="M271.46,10.55h-1.85a1,1,0,0,0-.7.29,1,1,0,0,0-.3.71v30a5,5,0,0,1-.42,2,5.36,5.36,0,0,1-2.8,2.82,4.67,4.67,0,0,1-2,.42,5,5,0,0,1-2-.42,5.42,5.42,0,0,1-1.68-1.14,5.6,5.6,0,0,1-1.14-1.68,5.16,5.16,0,0,1-.42-2v-30a1,1,0,0,0-.29-.71,1,1,0,0,0-.71-.29h-1.84a1,1,0,0,0-1,1v30a9,9,0,0,0,.72,3.56A9.16,9.16,0,0,0,257,48a9.32,9.32,0,0,0,2.89,1.95,8.93,8.93,0,0,0,3.56.73,8.83,8.83,0,0,0,3.54-.73A9.5,9.5,0,0,0,269.79,48a9.08,9.08,0,0,0,1.94-2.88,8.83,8.83,0,0,0,.73-3.56v-30a1,1,0,0,0-.29-.71,1,1,0,0,0-.71-.29" transform="translate(0 0)" fill="#231f20"></path>
    <path d="M294.72,33.74A18.93,18.93,0,0,0,292.13,31c-.93-.82-1.87-1.6-2.81-2.36h0c-.85-.66-1.67-1.33-2.46-2a14.87,14.87,0,0,1-2-2.07,9.4,9.4,0,0,1-1.34-2.31h0A7.5,7.5,0,0,1,283,19.4a5,5,0,0,1,.41-2,5.76,5.76,0,0,1,1.14-1.66,5.47,5.47,0,0,1,1.69-1.14,5,5,0,0,1,2-.42,4.75,4.75,0,0,1,2,.42A5.37,5.37,0,0,1,292,15.72a5.75,5.75,0,0,1,1.14,1.67,4.71,4.71,0,0,1,.42,2,1,1,0,0,0,.29.7,1,1,0,0,0,.71.3h1.84a1,1,0,0,0,.71-.3,1,1,0,0,0,.29-.7,9,9,0,0,0-.72-3.57,9.4,9.4,0,0,0-1.95-2.88A9.14,9.14,0,0,0,291.83,11a8.94,8.94,0,0,0-3.53-.71,8.76,8.76,0,0,0-3.56.73,9,9,0,0,0-4.83,4.83,8.79,8.79,0,0,0-.73,3.56,11.2,11.2,0,0,0,.71,4.12,13.33,13.33,0,0,0,1.82,3.21,18.22,18.22,0,0,0,2.49,2.64c.89.77,1.79,1.52,2.7,2.24s1.74,1.41,2.57,2.13a15.06,15.06,0,0,1,2.1,2.21A10.08,10.08,0,0,1,293,38.51a8.36,8.36,0,0,1,.52,3.05,4.92,4.92,0,0,1-.42,2A5.35,5.35,0,0,1,292,45.28a5.57,5.57,0,0,1-1.66,1.14,4.9,4.9,0,0,1-2,.41,5,5,0,0,1-2-.42,5.33,5.33,0,0,1-1.69-1.13h0a5.33,5.33,0,0,1-1.13-1.69,4.92,4.92,0,0,1-.42-2,1,1,0,0,0-1-1h-1.85a1,1,0,0,0-1,1,8.76,8.76,0,0,0,.73,3.56A9.29,9.29,0,0,0,281.85,48,9.12,9.12,0,0,0,284.74,50a8.76,8.76,0,0,0,3.56.73,8.63,8.63,0,0,0,3.54-.73,9.28,9.28,0,0,0,4.8-4.83,9,9,0,0,0,.72-3.57,12.18,12.18,0,0,0-.73-4.37,13.56,13.56,0,0,0-1.91-3.44" transform="translate(0 0)" fill="#231f20"></path>
</g>
</svg>